# Blender 4.3.2
# www.blender.org
o Cube
v 0.128349 1.849172 0.128349
v 0.128349 0.067410 0.128349
v -0.128349 1.849172 0.128349
v -0.128349 0.067410 0.128349
v 0.128349 1.849172 -0.128349
v 0.128349 0.067410 -0.128349
v -0.128349 1.849172 -0.128349
v -0.128349 0.067410 -0.128349
v 0.134804 0.347468 0.128349
v 1.916565 0.347469 0.128349
v 0.134804 0.090770 0.128349
v 1.916565 0.090771 0.128349
v 0.134804 0.347468 -0.128349
v 1.916565 0.347469 -0.128349
v 0.134804 0.090770 -0.128349
v 1.916565 0.090771 -0.128349
v 0.124377 0.347468 1.922011
v 0.124377 0.347469 0.140250
v 0.124377 0.090770 1.922011
v 0.124377 0.090771 0.140250
v -0.132321 0.347468 1.922011
v -0.132321 0.347469 0.140250
v -0.132321 0.090770 1.922011
v -0.132321 0.090771 0.140250
vn -0.0000 1.0000 -0.0000
vn -1.0000 -0.0000 -0.0000
vn -0.0000 -0.0000 -1.0000
vn -0.0000 -1.0000 -0.0000
vn -0.0000 -0.0000 1.0000
vn 1.0000 -0.0000 -0.0000
vt 0.875000 0.500000
vt 0.625000 0.750000
vt 0.625000 0.500000
vt 0.375000 1.000000
vt 0.375000 0.750000
vt 0.625000 0.000000
vt 0.375000 0.250000
vt 0.375000 0.000000
vt 0.375000 0.500000
vt 0.125000 0.750000
vt 0.125000 0.500000
vt 0.625000 0.250000
vt 0.875000 0.750000
vt 0.625000 1.000000
s 0
f 5/1/1 3/2/1 1/3/1
f 3/2/2 8/4/2 4/5/2
f 7/6/3 6/7/3 8/8/3
f 2/9/4 8/10/4 6/11/4
f 1/3/5 4/5/5 2/9/5
f 5/12/6 2/9/6 6/7/6
f 13/1/2 11/2/2 9/3/2
f 11/2/4 16/4/4 12/5/4
f 15/6/3 14/7/3 16/8/3
f 10/9/6 16/10/6 14/11/6
f 9/3/5 12/5/5 10/9/5
f 13/12/1 10/9/1 14/7/1
f 21/1/5 19/2/5 17/3/5
f 19/2/4 24/4/4 20/5/4
f 23/6/2 22/7/2 24/8/2
f 18/9/3 24/10/3 22/11/3
f 17/3/6 20/5/6 18/9/6
f 21/12/1 18/9/1 22/7/1
f 5/1/1 7/13/1 3/2/1
f 3/2/2 7/14/2 8/4/2
f 7/6/3 5/12/3 6/7/3
f 2/9/4 4/5/4 8/10/4
f 1/3/5 3/2/5 4/5/5
f 5/12/6 1/3/6 2/9/6
f 13/1/2 15/13/2 11/2/2
f 11/2/4 15/14/4 16/4/4
f 15/6/3 13/12/3 14/7/3
f 10/9/6 12/5/6 16/10/6
f 9/3/5 11/2/5 12/5/5
f 13/12/1 9/3/1 10/9/1
f 21/1/5 23/13/5 19/2/5
f 19/2/4 23/14/4 24/4/4
f 23/6/2 21/12/2 22/7/2
f 18/9/3 20/5/3 24/10/3
f 17/3/6 19/2/6 20/5/6
f 21/12/1 17/3/1 18/9/1
